<svg width="20" height="21" viewBox="0 0 20 21" fill="none" xmlns="http://www.w3.org/2000/svg"><g clip-path="url(#clip0_6304_5880)"><path d="M14.9057 4.47826L14.8939 4.45779C14.8775 4.42376 14.8585 4.39117 14.8374 4.3602L12.6115 0.511876C12.4511 0.234688 12.1526 0.0625 11.8324 0.0625H4.17188C3.85116 0.0625 3.55241 0.235094 3.39213 0.513032L1.12994 4.4376C1.10956 4.47298 1.09488 4.50998 1.0845 4.54757C1.05266 4.63354 1.03516 4.72645 1.03516 4.82338V14.9598C1.03516 15.5678 1.52981 16.0625 2.13781 16.0625H13.8661C14.4741 16.0625 14.9687 15.5678 14.9687 14.9598V4.78623C14.9687 4.77263 14.9683 4.75913 14.9676 4.7457C14.974 4.65548 14.9544 4.56245 14.9057 4.47826ZM8.48692 1.00035H11.8106L13.5616 4.02763H8.48692V1.00035ZM4.19372 1.00035H7.54908V4.02763H2.44872L4.19372 1.00035ZM14.0309 14.9598C14.0309 15.0507 13.957 15.1247 13.8661 15.1247H2.13781C2.04694 15.1247 1.973 15.0507 1.973 14.9598V4.96548H14.0309V14.9598Z" fill="#62D0B6"></path><path d="M10.1282 8.50451C9.94513 8.32141 9.6482 8.32141 9.46507 8.50451L7.37125 10.5983L6.56613 9.7932C6.38303 9.6101 6.08609 9.6101 5.90297 9.7932C5.71984 9.97629 5.71984 10.2732 5.90297 10.4564L7.03972 11.593C7.13128 11.6846 7.25132 11.7304 7.37128 11.7304C7.49125 11.7304 7.61132 11.6846 7.70285 11.593L10.1282 9.16767C10.3114 8.98454 10.3114 8.68763 10.1282 8.50451Z" fill="#62D0B6"></path></g><defs><clipPath id="clip0_6304_5880"><rect width="20" height="21" fill="white" transform="translate(0 0.0625)"></rect></clipPath></defs></svg>