<svg width="16" height="17" viewBox="0 0 16 17" fill="none" xmlns="http://www.w3.org/2000/svg"><g clip-path="url(#clip0_6304_5873)"><path d="M11.5384 5.05669C8.6825 3.31916 10.0217 0.86675 10.0792 0.764813C10.1626 0.61975 10.1623 0.441281 10.0785 0.296469C9.99475 0.151656 9.84012 0.0625 9.67281 0.0625C8.20272 0.0625 7.05153 0.480188 6.25125 1.304C4.88378 2.71166 4.94722 4.9025 4.97428 5.83806C4.97728 5.94169 4.97987 6.03125 4.97987 6.09775C4.97987 6.79238 5.09131 7.43366 5.18966 7.99944C5.25303 8.36403 5.30775 8.67891 5.31747 8.92647C5.32787 9.19147 5.2795 9.25222 5.27744 9.25466C5.27053 9.26284 5.21303 9.29344 5.05756 9.29344C4.88025 9.29344 4.74953 9.2355 4.63372 9.10566C4.18134 8.59841 4.15006 7.21334 4.23656 6.45981C4.25203 6.32694 4.21 6.19381 4.12103 6.09394C4.03209 5.99406 3.90472 5.93694 3.77097 5.93694C2.55394 5.93694 1.64453 7.92719 1.64453 9.70669C1.64453 10.5432 1.81278 11.3627 2.14462 12.1423C2.46544 12.896 2.92291 13.5763 3.50437 14.1641C4.71537 15.3883 6.31203 16.0625 8.00028 16.0625C9.69531 16.0625 11.2916 15.3978 12.495 14.1909C13.6953 12.9872 14.3563 11.3946 14.3563 9.70662C14.3563 7.55281 12.6711 5.74578 11.5384 5.05669ZM8.00028 15.125C5.06331 15.125 2.58206 12.6437 2.58206 9.70662C2.58206 8.99234 2.7525 8.24256 3.04966 7.64959C3.11906 7.51106 3.19028 7.39222 3.26056 7.29209C3.26841 8.06544 3.39091 9.11966 3.93325 9.72872C4.22581 10.0573 4.61459 10.2309 5.05759 10.2309C5.47144 10.2309 5.78681 10.1055 5.99487 9.85809C6.38387 9.39566 6.26447 8.70866 6.11334 7.83887C6.0215 7.31044 5.91741 6.71147 5.91741 6.09772C5.91741 6.01762 5.91462 5.92184 5.91144 5.81087C5.88578 4.92469 5.83237 3.08066 6.92372 1.95725C7.41362 1.45291 8.09762 1.14597 8.96294 1.04094C8.86525 1.36531 8.78103 1.77709 8.77778 2.23816C8.77059 3.25403 9.15916 4.70656 11.0512 5.85763C11.9666 6.41453 13.4188 7.95194 13.4188 9.70666C13.4188 12.6943 10.9881 15.125 8.00028 15.125Z" fill="#F55157"></path></g><defs><clipPath id="clip0_6304_5873"><rect width="16" height="16" fill="white" transform="translate(0 0.0625)"></rect></clipPath></defs></svg>